# xmcd
#
# Track frame offsets:
#	150
#	13891
#	25289
#	38182
#	50941
#	61482
#	71788
#	85461
#	96873
#	106682
#	118466
#	129850
#
# Disc length: 1870 seconds
#
# Revision: 0
# Processed by: cddbd v1.5.1PL0 Copyright (c) Steve Scherf et al.
# Submitted via: dBpowerAMP V4.0
#
DISCID=ae074c0c
DTITLE=Charley Pride - Best Of The Best Hall Of Fame 2000
DYEAR=2003
DGENRE=Country
TTITLE0=All I Have To Offer You ( Is Me )
TTITLE1=Does My Ring Hurt Your Finger
TTITLE2=Crystal Chandelier
TTITLE3=Kaw - Liga
TTITLE4=Just Between You And Me
TTITLE5=Someone Loves You Honey
TTITLE6=Mountain Of Love
TTITLE7=( Is Anybody Goin' To ) San Antone
TTITLE8=Kiss An Angel Good Morning
TTITLE9=I'm Just Me
TTITLE10=Mississippi Cotton Picking Delta Town
TTITLE11=I Know One
EXTD=
EXTT0=
EXTT1=
EXTT2=
EXTT3=
EXTT4=
EXTT5=
EXTT6=
EXTT7=
EXTT8=
EXTT9=
EXTT10=
EXTT11=
PLAYORDER=
